<svg width="99" height="26" viewBox="0 0 99 26" fill="none" xmlns="http://www.w3.org/2000/svg">
<rect width="99" height="26" rx="13" fill="#2E6045"/>
<path d="M16.2816 12.812C16.2816 11.996 16.4656 11.264 16.8336 10.616C17.2016 9.96 17.7016 9.448 18.3336 9.08C18.9736 8.712 19.6816 8.528 20.4576 8.528C21.3696 8.528 22.1656 8.748 22.8456 9.188C23.5256 9.628 24.0216 10.252 24.3336 11.06H23.0256C22.7936 10.556 22.4576 10.168 22.0176 9.896C21.5856 9.624 21.0656 9.488 20.4576 9.488C19.8736 9.488 19.3496 9.624 18.8856 9.896C18.4216 10.168 18.0576 10.556 17.7936 11.06C17.5296 11.556 17.3976 12.14 17.3976 12.812C17.3976 13.476 17.5296 14.06 17.7936 14.564C18.0576 15.06 18.4216 15.444 18.8856 15.716C19.3496 15.988 19.8736 16.124 20.4576 16.124C21.0656 16.124 21.5856 15.992 22.0176 15.728C22.4576 15.456 22.7936 15.068 23.0256 14.564H24.3336C24.0216 15.364 23.5256 15.984 22.8456 16.424C22.1656 16.856 21.3696 17.072 20.4576 17.072C19.6816 17.072 18.9736 16.892 18.3336 16.532C17.7016 16.164 17.2016 15.656 16.8336 15.008C16.4656 14.36 16.2816 13.628 16.2816 12.812ZM28.8272 17.108C28.2112 17.108 27.6512 16.968 27.1472 16.688C26.6512 16.408 26.2592 16.012 25.9712 15.5C25.6912 14.98 25.5512 14.38 25.5512 13.7C25.5512 13.028 25.6952 12.436 25.9832 11.924C26.2792 11.404 26.6792 11.008 27.1832 10.736C27.6872 10.456 28.2512 10.316 28.8752 10.316C29.4992 10.316 30.0632 10.456 30.5672 10.736C31.0712 11.008 31.4672 11.4 31.7552 11.912C32.0512 12.424 32.1992 13.02 32.1992 13.7C32.1992 14.38 32.0472 14.98 31.7432 15.5C31.4472 16.012 31.0432 16.408 30.5312 16.688C30.0192 16.968 29.4512 17.108 28.8272 17.108ZM28.8272 16.148C29.2192 16.148 29.5872 16.056 29.9312 15.872C30.2752 15.688 30.5512 15.412 30.7592 15.044C30.9752 14.676 31.0832 14.228 31.0832 13.7C31.0832 13.172 30.9792 12.724 30.7712 12.356C30.5632 11.988 30.2912 11.716 29.9552 11.54C29.6192 11.356 29.2552 11.264 28.8632 11.264C28.4632 11.264 28.0952 11.356 27.7592 11.54C27.4312 11.716 27.1672 11.988 26.9672 12.356C26.7672 12.724 26.6672 13.172 26.6672 13.7C26.6672 14.236 26.7632 14.688 26.9552 15.056C27.1552 15.424 27.4192 15.7 27.7472 15.884C28.0752 16.06 28.4352 16.148 28.8272 16.148ZM41.5429 10.304C42.0549 10.304 42.5109 10.412 42.9109 10.628C43.3109 10.836 43.6269 11.152 43.8589 11.576C44.0909 12 44.2069 12.516 44.2069 13.124V17H43.1269V13.28C43.1269 12.624 42.9629 12.124 42.6349 11.78C42.3149 11.428 41.8789 11.252 41.3269 11.252C40.7589 11.252 40.3069 11.436 39.9709 11.804C39.6349 12.164 39.4669 12.688 39.4669 13.376V17H38.3869V13.28C38.3869 12.624 38.2229 12.124 37.8949 11.78C37.5749 11.428 37.1389 11.252 36.5869 11.252C36.0189 11.252 35.5669 11.436 35.2309 11.804C34.8949 12.164 34.7269 12.688 34.7269 13.376V17H33.6349V10.424H34.7269V11.372C34.9429 11.028 35.2309 10.764 35.5909 10.58C35.9589 10.396 36.3629 10.304 36.8029 10.304C37.3549 10.304 37.8429 10.428 38.2669 10.676C38.6909 10.924 39.0069 11.288 39.2149 11.768C39.3989 11.304 39.7029 10.944 40.1269 10.688C40.5509 10.432 41.0229 10.304 41.5429 10.304ZM47.0902 11.636C47.3062 11.26 47.6262 10.948 48.0502 10.7C48.4822 10.444 48.9822 10.316 49.5502 10.316C50.1342 10.316 50.6622 10.456 51.1342 10.736C51.6142 11.016 51.9902 11.412 52.2622 11.924C52.5342 12.428 52.6702 13.016 52.6702 13.688C52.6702 14.352 52.5342 14.944 52.2622 15.464C51.9902 15.984 51.6142 16.388 51.1342 16.676C50.6622 16.964 50.1342 17.108 49.5502 17.108C48.9902 17.108 48.4942 16.984 48.0622 16.736C47.6382 16.48 47.3142 16.164 47.0902 15.788V20.12H45.9982V10.424H47.0902V11.636ZM51.5542 13.688C51.5542 13.192 51.4542 12.76 51.2542 12.392C51.0542 12.024 50.7822 11.744 50.4382 11.552C50.1022 11.36 49.7302 11.264 49.3222 11.264C48.9222 11.264 48.5502 11.364 48.2062 11.564C47.8702 11.756 47.5982 12.04 47.3902 12.416C47.1902 12.784 47.0902 13.212 47.0902 13.7C47.0902 14.196 47.1902 14.632 47.3902 15.008C47.5982 15.376 47.8702 15.66 48.2062 15.86C48.5502 16.052 48.9222 16.148 49.3222 16.148C49.7302 16.148 50.1022 16.052 50.4382 15.86C50.7822 15.66 51.0542 15.376 51.2542 15.008C51.4542 14.632 51.5542 14.192 51.5542 13.688ZM55.1996 8.12V17H54.1076V8.12H55.1996ZM63.0607 13.46C63.0607 13.668 63.0487 13.888 63.0247 14.12H57.7687C57.8087 14.768 58.0287 15.276 58.4287 15.644C58.8367 16.004 59.3287 16.184 59.9047 16.184C60.3767 16.184 60.7687 16.076 61.0807 15.86C61.4007 15.636 61.6247 15.34 61.7527 14.972H62.9287C62.7527 15.604 62.4007 16.12 61.8727 16.52C61.3447 16.912 60.6887 17.108 59.9047 17.108C59.2807 17.108 58.7207 16.968 58.2247 16.688C57.7367 16.408 57.3527 16.012 57.0727 15.5C56.7927 14.98 56.6527 14.38 56.6527 13.7C56.6527 13.02 56.7887 12.424 57.0607 11.912C57.3327 11.4 57.7127 11.008 58.2007 10.736C58.6967 10.456 59.2647 10.316 59.9047 10.316C60.5287 10.316 61.0807 10.452 61.5607 10.724C62.0407 10.996 62.4087 11.372 62.6647 11.852C62.9287 12.324 63.0607 12.86 63.0607 13.46ZM61.9327 13.232C61.9327 12.816 61.8407 12.46 61.6567 12.164C61.4727 11.86 61.2207 11.632 60.9007 11.48C60.5887 11.32 60.2407 11.24 59.8567 11.24C59.3047 11.24 58.8327 11.416 58.4407 11.768C58.0567 12.12 57.8367 12.608 57.7807 13.232H61.9327ZM65.8341 11.324V15.2C65.8341 15.52 65.9021 15.748 66.0381 15.884C66.1741 16.012 66.4101 16.076 66.7461 16.076H67.5501V17H66.5661C65.9581 17 65.5021 16.86 65.1981 16.58C64.8941 16.3 64.7421 15.84 64.7421 15.2V11.324H63.8901V10.424H64.7421V8.768H65.8341V10.424H67.5501V11.324H65.8341ZM74.8732 13.46C74.8732 13.668 74.8612 13.888 74.8372 14.12H69.5812C69.6212 14.768 69.8412 15.276 70.2412 15.644C70.6492 16.004 71.1412 16.184 71.7172 16.184C72.1892 16.184 72.5812 16.076 72.8932 15.86C73.2132 15.636 73.4372 15.34 73.5652 14.972H74.7412C74.5652 15.604 74.2132 16.12 73.6852 16.52C73.1572 16.912 72.5012 17.108 71.7172 17.108C71.0932 17.108 70.5332 16.968 70.0372 16.688C69.5492 16.408 69.1652 16.012 68.8852 15.5C68.6052 14.98 68.4652 14.38 68.4652 13.7C68.4652 13.02 68.6012 12.424 68.8732 11.912C69.1452 11.4 69.5252 11.008 70.0132 10.736C70.5092 10.456 71.0772 10.316 71.7172 10.316C72.3412 10.316 72.8932 10.452 73.3732 10.724C73.8532 10.996 74.2212 11.372 74.4772 11.852C74.7412 12.324 74.8732 12.86 74.8732 13.46ZM73.7452 13.232C73.7452 12.816 73.6532 12.46 73.4692 12.164C73.2852 11.86 73.0332 11.632 72.7132 11.48C72.4012 11.32 72.0532 11.24 71.6692 11.24C71.1172 11.24 70.6452 11.416 70.2532 11.768C69.8692 12.12 69.6492 12.608 69.5932 13.232H73.7452ZM75.9066 13.688C75.9066 13.016 76.0426 12.428 76.3146 11.924C76.5866 11.412 76.9586 11.016 77.4306 10.736C77.9106 10.456 78.4466 10.316 79.0386 10.316C79.5506 10.316 80.0266 10.436 80.4666 10.676C80.9066 10.908 81.2426 11.216 81.4746 11.6V8.12H82.5786V17H81.4746V15.764C81.2586 16.156 80.9386 16.48 80.5146 16.736C80.0906 16.984 79.5946 17.108 79.0266 17.108C78.4426 17.108 77.9106 16.964 77.4306 16.676C76.9586 16.388 76.5866 15.984 76.3146 15.464C76.0426 14.944 75.9066 14.352 75.9066 13.688ZM81.4746 13.7C81.4746 13.204 81.3746 12.772 81.1746 12.404C80.9746 12.036 80.7026 11.756 80.3586 11.564C80.0226 11.364 79.6506 11.264 79.2426 11.264C78.8346 11.264 78.4626 11.36 78.1266 11.552C77.7906 11.744 77.5226 12.024 77.3226 12.392C77.1226 12.76 77.0226 13.192 77.0226 13.688C77.0226 14.192 77.1226 14.632 77.3226 15.008C77.5226 15.376 77.7906 15.66 78.1266 15.86C78.4626 16.052 78.8346 16.148 79.2426 16.148C79.6506 16.148 80.0226 16.052 80.3586 15.86C80.7026 15.66 80.9746 15.376 81.1746 15.008C81.3746 14.632 81.4746 14.196 81.4746 13.7Z" fill="white"/>
</svg>
